<svg width="148" height="24" viewBox="0 0 148 24" fill="none" xmlns="http://www.w3.org/2000/svg">
<g clip-path="url(#clip0_18450_251)">
<path d="M28.8949 5.65964V5.65316C26.4054 5.65316 24.2466 7.09238 23.2093 9.1799H30.8722V14.8266H23.2093C24.2531 16.9141 26.4054 18.3533 28.8949 18.3533H30.8722V24H28.8949V24.0065C22.2693 24.0065 16.9014 18.6321 16.9014 12.0065C16.9014 5.38088 22.2693 0.0129662 28.8949 0.0129662V0.0194491H30.8722V5.66613H28.8949V5.65964Z" fill="#FE3B1F"/>
<path d="M83.332 5.65964V5.65316C80.8426 5.65316 78.6837 7.09238 77.6464 9.1799H85.3093V14.8266H77.6464C78.6902 16.9141 80.849 18.3533 83.332 18.3533H85.3093V24H83.332V24.0065C76.7064 24.0065 71.332 18.6321 71.332 12.0065C71.332 5.38088 76.7064 0.0129662 83.332 0.0129662V0.0194491H85.3093V5.66613H83.332V5.65964Z" fill="#FE3B1F"/>
<path d="M39.0533 0.00648117L33.4131 0.0129642V23.987H39.0533V24C45.6789 24 51.0533 18.6321 51.0533 12C51.0533 5.38087 45.6789 0.00648117 39.0533 0.00648117ZM39.0533 18.3533V5.65316C42.5541 5.65316 45.4066 8.49919 45.4066 12C45.4066 15.5073 42.5606 18.3533 39.0533 18.3533Z" fill="#FE3B1F"/>
<path d="M66.7487 9.73096C67.183 8.84279 67.4229 7.84441 67.4229 6.78768C67.4229 3.05348 64.3954 0.0194473 60.6547 0.0194473H53.5947V23.987H59.2349V23.9935H62.055V24C66.418 24 69.9578 20.4538 69.9578 16.0972C69.9642 13.4846 68.6936 11.1702 66.7487 9.73096ZM59.2349 5.65964H60.6482C61.2706 5.66612 61.7762 6.16531 61.7762 6.78768C61.7762 7.41653 61.2641 7.9222 60.6417 7.9222H59.2349V5.65964ZM62.055 18.3533H59.2349V13.8347H62.055C63.2997 13.8347 64.3176 14.8525 64.3176 16.0972C64.3176 17.342 63.2997 18.3533 62.055 18.3533Z" fill="#FE3B1F"/>
<path d="M142.697 0.00648117L135.332 13.5559V24H129.173V13.5559L121.809 0.00648117H128.752L132.253 6.45056L135.753 0.00648117H142.697Z" fill="#FE3B1F"/>
<path d="M12.4408 14.3144C14.3209 12.8493 15.5397 10.5673 15.5397 7.99352C15.5397 3.57861 11.9611 0 7.53971 0C6.98217 0 0 0 0 0V23.9935H5.91248V16H6.91734L11.3971 23.9935H17.8606L12.4408 14.3144ZM5.91248 5.91248H7.53971C8.68719 5.91248 9.62723 6.84603 9.62723 8C9.62723 9.15397 8.68719 10.0875 7.53971 10.0875H5.91248V5.91248Z" fill="#FE3B1F"/>
<path d="M100.292 14.3144C102.178 12.8493 103.391 10.5673 103.391 7.99352C103.391 3.57861 99.8122 0 95.3908 0C94.8332 0 87.8511 0 87.8511 0V23.9935H93.7636V16H94.7684L99.2481 23.9935H105.712L100.292 14.3144ZM93.7636 5.91248H95.3908C96.5447 5.91248 97.4783 6.84603 97.4783 8C97.4783 9.15397 96.5383 10.0875 95.3908 10.0875H93.7636V5.91248Z" fill="#FE3B1F"/>
<path d="M119.423 14.3144C121.309 12.8493 122.522 10.5673 122.522 7.99352C122.522 3.57861 118.943 0 114.522 0C113.964 0 106.982 0 106.982 0V23.9935H112.894V16H113.899L118.379 23.9935H124.843L119.423 14.3144ZM112.888 5.91248H114.515C115.663 5.91248 116.603 6.84603 116.603 8C116.603 9.15397 115.663 10.0875 114.515 10.0875H112.888V5.91248Z" fill="#FE3B1F"/>
<path d="M147.319 2.73582C147.008 3.047 146.632 3.20259 146.191 3.20259C145.971 3.20259 145.763 3.15721 145.569 3.07941C145.375 2.99514 145.206 2.87844 145.063 2.73582C144.921 2.59319 144.804 2.41815 144.726 2.23014C144.642 2.03565 144.603 1.8282 144.603 1.60778C144.603 1.38736 144.648 1.1799 144.726 0.985411C144.81 0.790922 144.927 0.622364 145.07 0.473256C145.212 0.324147 145.387 0.213937 145.582 0.129658C145.776 0.0453791 145.984 0.00648117 146.204 0.00648117C146.418 0.00648117 146.626 0.051862 146.82 0.129658C147.015 0.213937 147.183 0.33063 147.326 0.473256C147.475 0.615881 147.585 0.790922 147.676 0.985411C147.76 1.1799 147.806 1.38736 147.806 1.60778C147.799 2.04862 147.637 2.42463 147.319 2.73582ZM146.211 0.2658C146.029 0.2658 145.861 0.298215 145.705 0.369528C145.55 0.440841 145.407 0.531603 145.29 0.654779C145.174 0.777956 145.076 0.920581 145.011 1.08266C144.94 1.24473 144.908 1.41977 144.908 1.60778C144.908 1.7893 144.94 1.96434 145.011 2.12642C145.076 2.28849 145.174 2.43112 145.29 2.54781C145.407 2.6645 145.55 2.76175 145.705 2.83306C145.861 2.90437 146.036 2.93679 146.211 2.93679C146.386 2.93679 146.554 2.89789 146.71 2.83306C146.872 2.76175 147.008 2.6645 147.125 2.54133C147.242 2.41815 147.339 2.28201 147.41 2.11993C147.482 1.95786 147.514 1.7893 147.514 1.60129C147.514 1.41329 147.482 1.24473 147.41 1.08266C147.345 0.920581 147.248 0.777956 147.131 0.661262C147.015 0.538086 146.872 0.447324 146.717 0.376011C146.561 0.304698 146.392 0.2658 146.211 0.2658ZM145.53 2.48946V0.661262H146.152C146.438 0.661262 146.645 0.713126 146.762 0.810371C146.885 0.907616 146.943 1.03728 146.943 1.19287C146.943 1.29659 146.911 1.39384 146.846 1.4846C146.781 1.57536 146.691 1.64019 146.567 1.67261L146.989 2.45705L146.671 2.50243L146.263 1.71799H145.835V2.48946H145.53ZM146.178 1.45219C146.49 1.45219 146.645 1.36142 146.645 1.18638C146.645 1.01134 146.483 0.920581 146.159 0.920581H145.841V1.45219H146.178Z" fill="#FE3B1F"/>
</g>
<defs>
<clipPath id="clip0_18450_251">
<rect width="147.799" height="24" fill="white"/>
</clipPath>
</defs>
</svg>
